<mxfile host="app.diagrams.net" modified="2023-05-19T11:23:04.117Z" agent="Mozilla/5.0 (Windows NT 10.0; Win64; x64) AppleWebKit/537.36 (KHTML, like Gecko) Chrome/113.0.0.0 Safari/537.36" etag="RMNaafmyrYreFzgPgrWf" version="21.3.2" type="github">
  <diagram name="Page-1" id="qms-vdA4aX16qPGIxXgi">
    <mxGraphModel dx="1235" dy="1791" grid="1" gridSize="10" guides="1" tooltips="1" connect="1" arrows="1" fold="1" page="1" pageScale="1" pageWidth="850" pageHeight="1100" math="0" shadow="0">
      <root>
        <mxCell id="0" />
        <mxCell id="1" parent="0" />
        <mxCell id="cof-kkaovaxCJGvXOJgM-2" value="&lt;p style=&quot;line-height: 109%;&quot;&gt;&lt;br&gt;&lt;/p&gt;" style="edgeStyle=orthogonalEdgeStyle;rounded=0;orthogonalLoop=1;jettySize=auto;html=1;" edge="1" parent="1" source="cof-kkaovaxCJGvXOJgM-1">
          <mxGeometry x="-0.0062" y="-145" relative="1" as="geometry">
            <mxPoint x="425" y="180" as="targetPoint" />
            <mxPoint x="-145" y="-135" as="offset" />
          </mxGeometry>
        </mxCell>
        <mxCell id="cof-kkaovaxCJGvXOJgM-1" value="&lt;font color=&quot;#0d0d0d&quot;&gt;User&lt;/font&gt;" style="rounded=0;whiteSpace=wrap;html=1;fillColor=#1ba1e2;strokeColor=#006EAF;align=center;labelBackgroundColor=none;fontFamily=Lucida Console;fontSize=22;fontStyle=1;labelBorderColor=none;fontColor=#ffffff;" vertex="1" parent="1">
          <mxGeometry x="340" y="40" width="170" height="60" as="geometry" />
        </mxCell>
        <mxCell id="cof-kkaovaxCJGvXOJgM-4" value="&lt;p style=&quot;line-height: 100%;&quot;&gt;&lt;br&gt;&lt;/p&gt;" style="edgeStyle=orthogonalEdgeStyle;rounded=0;orthogonalLoop=1;jettySize=auto;html=1;exitX=0.5;exitY=1;exitDx=0;exitDy=0;strokeWidth=1;fontFamily=Helvetica;spacing=0;spacingTop=0;entryX=0.5;entryY=0;entryDx=0;entryDy=0;" edge="1" parent="1" source="cof-kkaovaxCJGvXOJgM-3" target="cof-kkaovaxCJGvXOJgM-6">
          <mxGeometry x="0.0082" y="15" relative="1" as="geometry">
            <mxPoint x="425" y="300" as="targetPoint" />
            <mxPoint y="-1" as="offset" />
          </mxGeometry>
        </mxCell>
        <mxCell id="cof-kkaovaxCJGvXOJgM-3" value="&lt;font face=&quot;Lucida Console&quot; style=&quot;font-size: 18px;&quot; color=&quot;#000000&quot;&gt;&lt;b&gt;Reservation&lt;/b&gt;&lt;/font&gt;" style="rounded=0;whiteSpace=wrap;html=1;fillColor=#1ba1e2;fontColor=#ffffff;strokeColor=#006EAF;" vertex="1" parent="1">
          <mxGeometry x="340" y="180" width="170" height="60" as="geometry" />
        </mxCell>
        <mxCell id="cof-kkaovaxCJGvXOJgM-12" style="edgeStyle=orthogonalEdgeStyle;rounded=0;orthogonalLoop=1;jettySize=auto;html=1;exitX=0.5;exitY=1;exitDx=0;exitDy=0;" edge="1" parent="1" source="cof-kkaovaxCJGvXOJgM-6">
          <mxGeometry relative="1" as="geometry">
            <mxPoint x="425" y="450" as="targetPoint" />
            <mxPoint x="425" y="410" as="sourcePoint" />
          </mxGeometry>
        </mxCell>
        <mxCell id="cof-kkaovaxCJGvXOJgM-6" value="&lt;font face=&quot;Lucida Console&quot; color=&quot;#000000&quot;&gt;&lt;span style=&quot;font-size: 18px;&quot;&gt;&lt;b&gt;Track User&lt;/b&gt;&lt;/span&gt;&lt;/font&gt;" style="rounded=0;whiteSpace=wrap;html=1;fillColor=#1ba1e2;fontColor=#ffffff;strokeColor=#006EAF;" vertex="1" parent="1">
          <mxGeometry x="340" y="320" width="170" height="60" as="geometry" />
        </mxCell>
        <mxCell id="cof-kkaovaxCJGvXOJgM-16" style="edgeStyle=orthogonalEdgeStyle;rounded=0;orthogonalLoop=1;jettySize=auto;html=1;entryX=0.5;entryY=0;entryDx=0;entryDy=0;" edge="1" parent="1" source="cof-kkaovaxCJGvXOJgM-13" target="cof-kkaovaxCJGvXOJgM-15">
          <mxGeometry relative="1" as="geometry" />
        </mxCell>
        <mxCell id="cof-kkaovaxCJGvXOJgM-13" value="&lt;font face=&quot;Lucida Console&quot; color=&quot;#000000&quot;&gt;&lt;span style=&quot;font-size: 18px;&quot;&gt;&lt;b&gt;Return Book&lt;/b&gt;&lt;/span&gt;&lt;/font&gt;" style="rounded=0;whiteSpace=wrap;html=1;fillColor=#1ba1e2;fontColor=#ffffff;strokeColor=#006EAF;" vertex="1" parent="1">
          <mxGeometry x="340" y="450" width="170" height="60" as="geometry" />
        </mxCell>
        <mxCell id="cof-kkaovaxCJGvXOJgM-15" value="&lt;font face=&quot;Lucida Console&quot; color=&quot;#000000&quot;&gt;&lt;span style=&quot;font-size: 18px;&quot;&gt;&lt;b&gt;Untrack User&lt;/b&gt;&lt;/span&gt;&lt;/font&gt;" style="rounded=0;whiteSpace=wrap;html=1;fillColor=#1ba1e2;fontColor=#ffffff;strokeColor=#006EAF;" vertex="1" parent="1">
          <mxGeometry x="340" y="600" width="170" height="60" as="geometry" />
        </mxCell>
      </root>
    </mxGraphModel>
  </diagram>
</mxfile>
